<svg width="198" height="50" viewBox="0 0 198 50" fill="none" xmlns="http://www.w3.org/2000/svg">
<path d="M23.5396 21.64H28.0196V20.016C29.5316 21.5 31.2396 22.648 32.9476 23.236L34.5716 19.988C31.2116 19.036 28.6356 17.58 26.5076 15.676H33.7876V13.968H28.1596V5.96H32.6956V4.252H28.1596V1.452H24.8276V4.252H18.4436V1.452H15.1116V4.252H10.7716V5.96H15.1116V13.968H9.6236V15.676H16.0356C14.2716 18.448 11.2756 20.856 8.8396 22.116L9.4276 23.432C11.1076 22.9 13.4316 21.808 15.5316 20.268V21.64H19.9276V24.664H10.5476V26.372H33.0316V24.664H23.5396V21.64ZM18.4436 5.96H24.8276V7.472H18.4436V5.96ZM18.4436 9.096H24.8276V10.692H18.4436V9.096ZM18.4436 12.316H24.8276V13.968H18.4436V12.316ZM19.9276 19.96H15.9236C17.4916 18.756 18.9196 17.3 19.8436 15.676H24.6596C25.5556 17.244 26.7036 18.728 27.9636 19.96H23.5396V16.908H19.9276V19.96ZM48.2636 8.256L49.0756 9.32C50.1396 8.732 51.3156 7.78 52.4636 6.576C53.0236 7.332 53.6956 8.004 54.3956 8.62C52.7436 9.656 50.5876 10.58 47.7316 11.196L48.0956 12.624C48.8796 12.54 49.6636 12.4 50.3916 12.26V13.828H61.5356V12.148H50.9236C53.0236 11.672 54.8716 10.972 56.4956 10.076C58.7076 11.42 61.2836 12.204 63.9436 12.596L65.1196 9.46C62.8516 9.208 60.8076 8.928 58.9316 8.396C60.2756 7.276 61.3396 5.932 62.2076 4.448L59.2956 2.936L58.2876 3.468H54.8716C55.1516 3.02 55.4036 2.572 55.6556 2.124L52.6036 1.06C51.7636 3.692 50.1676 6.408 48.2636 8.256ZM57.9796 22.508H62.3756V20.828H57.9796V18.812H62.7956V17.132H57.9796V14.388H54.6476V17.132H52.7716C53.1356 16.46 53.4716 15.732 53.7516 14.976L51.0076 14.164C50.5876 16.404 49.7756 18.504 48.9356 19.932C49.1036 19.4 49.1876 18.784 49.1876 18.056C49.1316 15.9 48.0676 13.548 46.1916 11.112C47.1716 9.544 48.4596 6.968 49.6356 3.244L46.5556 2.068L45.8276 2.712H44.0916L41.2636 1.984V27.38H44.3156V21.136C46.2756 22.312 48.0396 22.004 48.7956 20.324L49.6916 21.136C50.3636 20.52 51.0916 19.736 51.7356 18.812H54.6476V20.828H50.2796V22.508H54.6476V24.776H47.4516V26.456H64.6716V24.776H57.9796V22.508ZM44.3156 19.54V4.392H46.1076C45.9116 6.548 45.4076 9.208 44.8476 11.308C46.0516 13.912 46.3036 15.704 46.3036 17.356C46.2756 19.512 45.8836 19.82 44.3156 19.54ZM58.1756 5.12C57.6436 5.848 56.9716 6.604 56.1316 7.332C55.1796 6.856 54.2556 6.268 53.3596 5.54L53.6956 5.12H58.1756ZM95.5836 7.388V5.456H84.9156L86.3156 3.328C84.2156 2.264 81.4436 1.284 79.2876 0.835999L78.7276 2.236C79.9596 3.076 81.5836 4.252 83.0676 5.456H71.0836V7.388H81.5276V11.112H73.5476V24.776H77.0476V12.876H81.5276V27.464H85.1676V12.876H89.7316V20.828C89.7316 22.2 89.1716 22.452 86.3996 22.088L86.0916 23.488C89.7876 25.476 93.2316 24.944 93.2316 21.64V11.112H85.1676V7.388H95.5836ZM110.032 18.168L112.636 16.516C111.74 15.116 110.144 13.268 108.744 12.036V10.272H111.852V8.592H108.744V4.812C110.144 4.504 111.516 4.112 112.664 3.664L110.06 0.947999C107.736 2.46 104.656 3.664 101.632 4.364L101.912 5.736C102.892 5.68 104.096 5.568 105.356 5.4V8.592H101.744V10.272H104.852C104.152 14.248 103.032 17.972 101.268 21.164L102.332 22.004C103.62 20.52 104.6 18.84 105.356 17.132V27.38H108.744V15.088C109.192 16.096 109.668 17.216 110.032 18.168ZM125.992 19.204H124.62C124.704 23.544 124.564 23.824 123.556 23.824C122.576 23.824 122.324 23.6 122.324 22.872V15.844H125.012V7.416H121.512C122.632 5.96 123.808 3.888 124.62 2.264L120.98 1.088C120.756 2.908 120.252 5.596 119.692 7.416H116.416L118.32 6.688C117.536 4.84 116.052 2.572 114.708 1.2L113.42 1.844C113.98 3.356 114.624 5.512 115.072 7.416H112.468V15.844H114.904C114.736 21.696 113.308 24.384 109.528 26.344L110.088 27.604C114.708 26.4 118.012 23.264 118.18 15.844H119.076V23.88C119.076 26.456 120.056 26.848 123.444 26.848C127.14 26.848 127.42 25.28 125.992 19.204ZM121.68 14.136H115.744V9.124H121.68V14.136ZM150.576 14.276H147.664C148.672 13.772 149.624 13.184 150.492 12.512C152.228 13.968 154.272 15.116 156.4 15.676L157.744 12.456C155.672 12.008 153.908 11.42 152.424 10.664C153.6 9.32 154.496 7.696 155.056 5.848H157.1V4.168H148.672C149.064 3.356 149.4 2.572 149.624 1.816L146.488 1.004C145.9 3.944 145.144 6.268 143.324 9.04L144.304 9.88C145.088 9.236 145.844 8.452 146.516 7.584C147.048 8.704 147.86 9.852 148.812 10.888C147.468 12.288 145.648 13.436 143.324 14.388C144.08 13.492 144.836 12.484 145.34 11.476L142.54 9.908L141.7 10.468H139.88L141.196 9.404C140.776 8.928 140.356 8.508 139.908 8.088C141.588 6.996 143.408 5.456 144.64 3.916L141.532 1.956L140.552 2.544H133.188V4.168H140.608C140.076 5.204 139.432 6.128 138.648 7.052C137.724 6.324 136.772 5.708 135.792 5.176L134.98 6.128C136.044 7.332 137.248 8.872 138.312 10.468H132.6V12.092H137.024C135.96 16.32 134.476 19.428 132.152 22.284L133.048 23.348C135.092 21.612 136.492 19.68 137.5 17.72V23.656C137.5 25 136.828 25.224 134 24.72L133.636 26.036C137.948 28.556 140.608 26.932 140.608 24.216V15.452L141.56 16.124C142.008 15.76 142.484 15.284 142.96 14.78L143.268 15.816C144.668 15.48 146.012 15.06 147.272 14.472C147.244 15.228 147.188 15.956 147.104 16.628H142.596V18.28H146.88C146.152 22.144 144.444 24.356 140.832 26.316L141.364 27.548C145.676 26.456 148.896 23.628 150.072 18.28H153.096C153.012 20.268 152.816 22.116 152.592 23.376C152.312 24.944 151.696 25.028 148.784 24.272L148.28 25.532C152.256 28.808 155.196 27.184 155.7 24.58C156.064 22.844 156.344 20.044 156.484 16.628H150.38C150.464 15.9 150.548 15.116 150.576 14.276ZM147.468 6.24L147.72 5.848H151.696C151.36 7.08 150.856 8.2 150.184 9.236C149.148 8.396 148.252 7.416 147.468 6.24ZM140.608 15.06V12.092H141.728C141.504 13.044 141.056 14.136 140.608 15.06ZM169.28 11.812V10.636V9.376H185.604V2.74H165.612V10.524C165.612 17.524 165.472 22.396 163.176 26.652L164.268 27.548C167.992 24.356 169.028 19.708 169.224 13.576H183.42C183.364 18.784 183.28 21.136 183.168 23.236C183.056 24.72 182.636 24.916 178.744 24.16L178.324 25.504C183.056 28.08 186.276 27.8 186.612 24.188C186.836 21.892 186.948 18.476 187.032 11.812H169.28ZM182.02 4.448V7.668H169.28V4.448H182.02ZM180.9 22.396V15.732H170.176V24.244H173.48V22.396H180.9ZM177.624 17.384V20.744H173.48V17.384H177.624ZM6.42558 46V44.81H2.78558V35.71H0.811581V46H6.42558ZM14.5159 42.374C14.5159 40.54 13.5359 38.524 11.0439 38.51C8.60794 38.51 7.45994 40.498 7.45994 42.388C7.45994 44.432 8.50994 46.238 10.9459 46.252C13.4799 46.266 14.5159 44.474 14.5159 42.374ZM12.6259 42.402C12.6259 43.788 12.2339 45.23 11.0439 45.23C9.89594 45.23 9.34994 43.76 9.34994 42.402C9.33594 41.142 9.74194 39.532 10.9319 39.546C12.1219 39.546 12.6119 41.156 12.6259 42.402ZM21.7804 45.636V44.32C21.1084 44.936 20.6324 45.16 19.6944 45.16C18.0984 45.174 17.6084 43.928 17.5804 42.388C17.5664 41.128 17.9584 39.56 19.5404 39.532C20.4084 39.518 21.0664 39.854 21.7524 40.526V39.14C21.1084 38.692 20.3104 38.454 19.3024 38.454C16.8384 38.44 15.6904 40.484 15.6904 42.374C15.6904 44.712 16.8944 46.238 19.4424 46.266C20.4504 46.266 21.2064 46.07 21.7804 45.636ZM27.5988 46.028H29.3768C29.2788 45.608 29.2088 44.894 29.1948 44.432V41.03C29.1948 39.448 28.2008 38.468 26.3808 38.482C25.2328 38.496 24.1968 38.832 23.4688 39.294V40.596C24.2388 39.994 25.2888 39.588 26.1708 39.588C26.9548 39.588 27.3608 40.036 27.3608 40.932V41.492C27.0108 41.422 26.6608 41.408 26.0588 41.45C23.9868 41.548 22.9228 42.556 22.9088 43.844C22.8948 45.132 23.5948 46.238 25.4988 46.196C26.5488 46.182 27.2208 45.636 27.5008 45.104C27.5008 45.384 27.5288 45.678 27.5988 46.028ZM27.4028 42.444V43.27C27.3888 43.802 27.3468 44.208 26.9688 44.614C26.5768 44.978 26.1848 45.034 25.7508 45.006C25.0648 44.964 24.7008 44.502 24.7008 43.718C24.7148 42.864 25.4148 42.5 26.1848 42.416C26.6328 42.36 27.0528 42.374 27.4028 42.444ZM34.1058 46.014V44.852C33.9098 44.95 33.6718 45.006 33.4478 44.992C32.9158 44.978 32.8038 44.754 32.8038 43.872V35.262H30.9558V43.998C30.9558 44.936 31.1238 45.454 31.4878 45.804C32.0198 46.322 33.2378 46.35 34.1058 46.014ZM40.5811 46.014H42.5551V36.9H45.0891V35.724H38.1031V36.9H40.5811V46.014ZM49.884 46.028H51.662C51.564 45.608 51.494 44.894 51.48 44.432V41.03C51.48 39.448 50.486 38.468 48.666 38.482C47.518 38.496 46.482 38.832 45.754 39.294V40.596C46.524 39.994 47.574 39.588 48.456 39.588C49.24 39.588 49.646 40.036 49.646 40.932V41.492C49.296 41.422 48.946 41.408 48.344 41.45C46.272 41.548 45.208 42.556 45.194 43.844C45.18 45.132 45.88 46.238 47.784 46.196C48.834 46.182 49.506 45.636 49.786 45.104C49.786 45.384 49.814 45.678 49.884 46.028ZM49.688 42.444V43.27C49.674 43.802 49.632 44.208 49.254 44.614C48.862 44.978 48.47 45.034 48.036 45.006C47.35 44.964 46.986 44.502 46.986 43.718C47 42.864 47.7 42.5 48.47 42.416C48.918 42.36 49.338 42.374 49.688 42.444ZM52.3589 46.014H54.2769L55.2569 44.572C55.5229 44.18 55.8869 43.592 56.0689 43.214H56.1529C56.3209 43.578 56.6569 44.18 56.8669 44.586L57.6089 46H59.8769L57.2309 42.262L59.6669 38.734H57.7489L56.9649 40.12C56.7549 40.526 56.4749 40.96 56.3069 41.282H56.2089C56.0269 40.96 55.7749 40.54 55.5509 40.19L54.6689 38.734H52.5269L55.0889 42.318L52.3589 46.014ZM71.9406 43.186C71.9266 41.8 70.7925 40.834 69.5186 40.694V40.61C70.6526 40.428 71.5065 39.616 71.5065 38.314C71.5065 36.718 70.0646 35.78 67.8246 35.71C66.8306 35.682 65.6126 35.724 64.5346 35.85V45.916C65.6826 45.986 66.9986 46.028 68.3006 45.986C70.5406 45.902 71.9686 45.146 71.9406 43.186ZM69.5606 38.51C69.5606 39.784 68.8606 40.148 67.7266 40.148H66.5086V36.956C66.8726 36.928 67.2226 36.914 67.5866 36.928C68.6926 36.97 69.5606 37.376 69.5606 38.51ZM69.9666 43.018C69.9666 44.53 69.1546 44.684 67.8526 44.768C67.4186 44.796 66.9706 44.782 66.5086 44.754V41.24H67.7826C68.9866 41.24 69.9666 41.66 69.9666 43.018ZM75.2953 38.72H73.4333V43.746C73.4333 45.328 74.2453 46.182 75.8693 46.196C77.0033 46.196 77.8433 45.566 78.1373 44.894V46H79.8873V38.72H78.0393V42.598C78.0393 43.928 77.5633 44.964 76.4993 44.964C75.5613 44.964 75.2953 44.32 75.2953 43.466V38.72ZM81.7051 46.014H83.5671V42.304C83.5671 41.436 84.0291 40.442 85.0371 40.176C85.3591 40.092 85.5971 40.092 85.9471 40.218V38.538C85.5831 38.468 85.3171 38.482 85.0511 38.538C84.4771 38.636 83.7211 39.266 83.4551 40.05C83.4831 39.658 83.4691 39.14 83.4691 38.734H81.7051V46.014ZM90.5131 46.266C91.6191 46.266 92.4591 46.056 93.0051 45.65V44.334C92.3051 44.88 91.5351 45.174 90.6251 45.146C89.1831 45.118 88.5251 44.208 88.5251 42.612H93.4391C93.4811 42.332 93.4951 42.094 93.4811 41.828C93.4671 40.26 92.4871 38.482 90.1491 38.482C87.8951 38.482 86.5931 40.26 86.5791 42.304C86.5651 44.824 87.8951 46.266 90.5131 46.266ZM88.5671 41.646C88.5671 40.526 89.1271 39.476 90.1211 39.476C91.0731 39.476 91.6331 40.484 91.6191 41.646H88.5671ZM99.3352 46.028H101.113C101.015 45.608 100.945 44.894 100.931 44.432V41.03C100.931 39.448 99.9372 38.468 98.1172 38.482C96.9692 38.496 95.9332 38.832 95.2052 39.294V40.596C95.9752 39.994 97.0252 39.588 97.9072 39.588C98.6912 39.588 99.0972 40.036 99.0972 40.932V41.492C98.7472 41.422 98.3972 41.408 97.7952 41.45C95.7232 41.548 94.6592 42.556 94.6452 43.844C94.6312 45.132 95.3312 46.238 97.2352 46.196C98.2852 46.182 98.9572 45.636 99.2372 45.104C99.2372 45.384 99.2652 45.678 99.3352 46.028ZM99.1392 42.444V43.27C99.1252 43.802 99.0832 44.208 98.7052 44.614C98.3132 44.978 97.9212 45.034 97.4872 45.006C96.8012 44.964 96.4372 44.502 96.4372 43.718C96.4512 42.864 97.1512 42.5 97.9212 42.416C98.3692 42.36 98.7892 42.374 99.1392 42.444ZM104.512 38.72H102.65V43.746C102.65 45.328 103.462 46.182 105.086 46.196C106.22 46.196 107.06 45.566 107.354 44.894V46H109.104V38.72H107.256V42.598C107.256 43.928 106.78 44.964 105.716 44.964C104.778 44.964 104.512 44.32 104.512 43.466V38.72ZM110.782 48.058H111.986C112.392 47.26 113.26 45.328 113.666 44.068H111.566C111.454 45.16 111.09 46.91 110.782 48.058ZM118.616 41.492L121.304 46H123.474L119.638 40.344L123.334 35.724H121.318C120.576 36.788 119.834 37.852 119.26 38.636C118.798 39.252 118.308 39.882 117.916 40.344V35.724H115.998V46.014H117.916V42.374L118.616 41.492ZM127.796 46.266C128.902 46.266 129.742 46.056 130.288 45.65V44.334C129.588 44.88 128.818 45.174 127.908 45.146C126.466 45.118 125.808 44.208 125.808 42.612H130.722C130.764 42.332 130.778 42.094 130.764 41.828C130.75 40.26 129.77 38.482 127.432 38.482C125.178 38.482 123.876 40.26 123.862 42.304C123.848 44.824 125.178 46.266 127.796 46.266ZM125.85 41.646C125.85 40.526 126.41 39.476 127.404 39.476C128.356 39.476 128.916 40.484 128.902 41.646H125.85ZM135.876 46.266C136.982 46.266 137.822 46.056 138.368 45.65V44.334C137.668 44.88 136.898 45.174 135.988 45.146C134.546 45.118 133.888 44.208 133.888 42.612H138.802C138.844 42.332 138.858 42.094 138.844 41.828C138.83 40.26 137.85 38.482 135.512 38.482C133.258 38.482 131.956 40.26 131.942 42.304C131.928 44.824 133.258 46.266 135.876 46.266ZM133.93 41.646C133.93 40.526 134.49 39.476 135.484 39.476C136.436 39.476 136.996 40.484 136.982 41.646H133.93ZM143.494 46.014V44.852C143.298 44.95 143.06 45.006 142.836 44.992C142.304 44.978 142.192 44.754 142.192 43.872V35.262H140.344V43.998C140.344 44.936 140.512 45.454 140.876 45.804C141.408 46.322 142.626 46.35 143.494 46.014ZM146.375 38.72H144.513V43.746C144.513 45.328 145.325 46.182 146.949 46.196C148.083 46.196 148.923 45.566 149.217 44.894V46H150.967V38.72H149.119V42.598C149.119 43.928 148.643 44.964 147.579 44.964C146.641 44.964 146.375 44.32 146.375 43.466V38.72ZM157.447 46H159.309V41.1C159.309 39.616 158.483 38.538 156.845 38.524C155.711 38.51 154.843 39.154 154.549 39.868V38.706H152.827V46.014H154.675V42.122C154.675 40.764 155.095 39.798 156.243 39.798C157.153 39.798 157.447 40.456 157.447 41.254V46ZM164.01 49.29C167.216 49.332 168.028 47.512 167.972 44.852V38.706H166.222V39.616C165.858 38.916 165.088 38.454 164.122 38.454C162.036 38.468 160.762 40.134 160.762 42.262C160.748 44.53 161.826 46.084 164.122 46.084C164.962 46.084 165.816 45.664 166.152 45.048C166.124 45.468 166.138 45.804 166.096 46.21C166.026 47.246 165.466 48.128 164.066 48.128C163.1 48.1 162.288 47.75 161.462 47.162V48.478C162.176 48.968 163.17 49.262 164.01 49.29ZM164.416 44.978C163.282 44.964 162.638 43.746 162.638 42.29C162.638 40.708 163.268 39.504 164.486 39.504C165.508 39.504 166.082 40.568 166.152 41.814V42.5C166.124 44.04 165.55 44.992 164.416 44.978ZM180.71 37.922V36.242C180.038 35.822 178.988 35.5 177.812 35.5C174.998 35.486 173.29 37.614 173.276 40.834C173.262 43.858 174.788 46.238 177.952 46.238C179.156 46.238 180.136 46.028 180.724 45.58V43.97C180.01 44.6 179.198 44.992 178.204 44.992C175.964 44.992 175.292 43.004 175.306 40.862C175.306 38.776 175.978 36.732 177.952 36.732C178.932 36.732 180.038 37.264 180.71 37.922ZM183.243 37.586C183.831 37.586 184.321 37.096 184.321 36.508C184.321 35.934 183.831 35.444 183.243 35.444C182.641 35.444 182.137 35.934 182.137 36.508C182.137 37.096 182.641 37.586 183.243 37.586ZM182.305 46H184.153V38.734H182.305V46ZM189.927 45.986V44.81C189.703 44.95 189.535 44.992 189.269 44.992C188.527 44.992 188.373 44.628 188.373 43.718V39.728H189.857V38.734H188.373V36.788H186.539V38.734H185.461V39.728H186.539V43.844C186.539 44.684 186.721 45.216 187.043 45.608C187.337 45.972 187.911 46.21 188.681 46.21C189.171 46.21 189.591 46.126 189.927 45.986ZM190.627 48.884C191.887 49.276 193.147 49.038 193.791 48.016C194.239 47.4 194.659 46.532 195.079 45.454L197.557 38.72H195.807L194.813 42.164C194.659 42.654 194.477 43.284 194.337 43.83H194.253C194.085 43.284 193.847 42.612 193.651 42.08L192.503 38.72H190.445L193.497 45.72C193.287 46.406 192.937 47.05 192.699 47.386C192.237 47.988 191.565 47.904 190.627 47.54V48.884Z" fill="#152C66"/>
</svg>
